<?xml version="1.0" standalone="no"?>
<!DOCTYPE svg PUBLIC "-//W3C//DTD SVG 20010904//EN"
 "http://www.w3.org/TR/2001/REC-SVG-20010904/DTD/svg10.dtd">
<svg version="1.0" xmlns="http://www.w3.org/2000/svg"
 width="300.000000pt" height="139.000000pt" viewBox="0 0 300.000000 139.000000"
 preserveAspectRatio="xMidYMid meet">
<metadata>
Created by potrace 1.10, written by Peter Selinger 2001-2011
</metadata>
<g transform="translate(0.000000,139.000000) scale(0.100000,-0.100000)"
fill="#000000" stroke="none">
<path d="M610 1330 c-111 -21 -176 -44 -96 -34 43 6 48 5 43 -10 -4 -9 -53
-87 -111 -174 -155 -233 -325 -554 -416 -785 -25 -64 -22 -85 6 -38 10 17 23
31 29 31 6 0 29 -18 50 -40 72 -74 142 -75 247 -4 75 51 123 99 179 178 60 85
89 161 96 251 5 66 -2 97 -34 156 -2 4 27 24 64 45 95 53 166 126 181 186 36
142 -11 259 -102 257 -23 0 -84 -9 -136 -19z m72 -187 c39 -44 29 -91 -33
-152 -49 -50 -151 -93 -165 -70 -3 5 26 49 64 97 37 48 76 99 86 115 21 32 28
33 48 10z m-209 -378 c37 -37 23 -177 -30 -284 -31 -64 -100 -137 -139 -147
-41 -11 -74 32 -74 96 0 81 96 281 158 330 29 24 65 26 85 5z"/>
<path d="M2386 1305 c-10 -15 -26 -25 -41 -25 -24 0 -22 -3 31 -86 46 -70 204
-380 227 -446 8 -23 3 -23 -36 5 -63 44 -117 101 -159 166 -40 60 -43 63 -46
38 -2 -15 -12 -33 -23 -41 -19 -13 -19 -14 6 -107 15 -52 48 -166 76 -254 27
-88 58 -200 68 -248 11 -49 21 -91 24 -93 3 -3 22 6 42 21 21 14 42 25 46 25
14 0 10 33 -12 96 -25 74 -60 216 -54 223 21 20 183 -130 271 -252 37 -51 69
-94 70 -96 2 -2 12 3 22 12 25 23 34 21 62 -8 39 -41 35 -19 -8 47 -42 64 -79
140 -172 353 -78 178 -190 398 -256 500 -31 50 -72 114 -89 143 l-33 52 -16
-25z"/>
<path d="M2184 1154 l-9 -96 -55 -19 c-30 -11 -62 -22 -70 -25 -10 -3 -23 10
-38 37 -13 22 -26 39 -28 36 -3 -3 -1 -56 5 -118 6 -63 11 -245 11 -405 l0
-292 31 -6 c50 -10 51 -9 46 41 -12 134 55 220 131 167 37 -26 50 -65 67 -199
10 -83 23 -145 37 -174 l22 -46 6 55 c6 63 19 90 55 119 31 23 31 22 -41 243
-66 206 -102 362 -130 578 -14 107 -26 196 -28 197 -2 2 -7 -40 -12 -93z m-18
-408 c14 -44 26 -103 27 -130 l2 -50 -48 -14 c-27 -7 -50 -12 -52 -10 -1 2 1
26 5 53 5 28 9 100 10 160 1 100 2 108 16 90 8 -11 26 -56 40 -99z"/>
<path d="M917 1195 c-25 -148 -125 -390 -256 -620 -28 -49 -66 -118 -84 -153
-30 -59 -31 -65 -17 -89 23 -41 35 -38 64 20 41 80 97 149 141 174 50 28 60
28 86 2 18 -18 20 -28 14 -78 -7 -65 -45 -220 -74 -305 -23 -66 -20 -79 15
-70 39 10 74 -4 86 -34 10 -26 12 -23 29 48 57 231 183 778 199 860 24 128 34
234 22 226 -5 -3 -12 -18 -15 -33 -10 -45 -17 -48 -109 -45 l-87 3 -3 72 -3
72 -8 -50z m89 -231 c13 -52 -3 -187 -29 -245 l-25 -56 -63 -6 c-34 -4 -67 -3
-72 2 -5 5 7 40 29 82 20 41 47 101 59 134 40 104 46 115 71 115 17 0 25 -7
30 -26z"/>
<path d="M1916 1133 c-2 -15 -8 -48 -11 -73 -15 -101 -60 -263 -112 -395 -30
-77 -57 -143 -61 -147 -4 -4 -8 14 -9 40 -1 26 -7 73 -14 105 -7 33 -10 95 -7
148 l6 92 -27 -70 c-27 -69 -165 -318 -281 -509 -67 -110 -75 -152 -39 -198
12 -15 25 -26 31 -24 5 2 26 42 46 88 54 123 107 222 129 242 29 26 47 6 72
-80 43 -144 34 -144 106 6 35 72 67 132 71 132 7 0 -1 -292 -12 -395 l-6 -60
65 0 66 0 6 36 c6 36 -3 1080 -10 1087 -2 2 -6 -9 -9 -25z"/>
<path d="M1148 877 c-16 -60 -25 -113 -22 -118 3 -5 29 -9 59 -9 58 0 90 -19
81 -49 -3 -9 -10 -36 -15 -61 -6 -25 -37 -136 -69 -248 -33 -111 -55 -205 -51
-207 4 -3 17 11 29 30 29 47 63 69 95 61 21 -5 27 -2 35 20 14 36 55 210 74
314 22 118 39 134 147 139 l81 3 49 106 c27 58 48 107 46 109 -3 2 -22 -24
-43 -57 l-39 -61 -71 6 c-39 4 -89 10 -110 15 -21 5 -85 10 -141 10 l-102 0
-3 53 -3 52 -27 -108z"/>
</g>
</svg>
